<svg width="31" height="31" viewBox="0 0 31 31" fill="none" xmlns="http://www.w3.org/2000/svg">
<g clip-path="url(#clip0_3_17)" filter="url(#filter0_d_3_17)">
<path d="M21.8094 18.9299L21.8382 19.0429H21.9548H26.1786C26.5494 19.0429 26.85 19.3435 26.85 19.7143C26.85 20.0851 26.5494 20.3858 26.1786 20.3858H21.9548H21.8382L21.8094 20.4988C21.5276 21.6062 20.6628 22.471 19.5553 22.7529C17.8853 23.1779 16.187 22.1687 15.762 20.4988L15.7332 20.3858H15.6166H4.82144C4.45061 20.3858 4.15 20.0851 4.15 19.7143C4.15 19.3435 4.4506 19.0429 4.82144 19.0429H15.6166H15.7332L15.762 18.9299C16.0438 17.8224 16.9086 16.9577 18.0161 16.6758C19.6861 16.2508 21.3844 17.26 21.8094 18.9299ZM16.9929 19.7144C16.9929 20.7045 17.7956 21.5072 18.7857 21.5072C19.7759 21.5072 20.5785 20.7045 20.5785 19.7144C20.5785 18.7242 19.7759 17.9215 18.7857 17.9215C17.7956 17.9215 16.9929 18.7242 16.9929 19.7144Z" fill="#3590C7" stroke="black" stroke-width="0.3"/>
<path d="M12.7737 10.7156L12.8025 10.8286H12.9191H26.1786C26.5494 10.8286 26.85 11.1292 26.85 11.5C26.85 11.8708 26.5494 12.1714 26.1786 12.1714H12.9191H12.8025L12.7738 12.2844C12.4919 13.3919 11.6271 14.2567 10.5196 14.5386C8.84965 14.9636 7.15133 13.9544 6.72632 12.2844L6.69756 12.1714H6.58095H4.82144C4.4506 12.1714 4.15 11.8709 4.15 11.5C4.15 11.1292 4.45061 10.8286 4.82144 10.8286H6.5809H6.69751L6.72627 10.7156C7.00814 9.60812 7.87292 8.74335 8.98039 8.46147C10.6504 8.03646 12.3487 9.04566 12.7737 10.7156ZM7.95717 11.5C7.95717 12.4902 8.75986 13.2929 9.75001 13.2929C10.7402 13.2929 11.5429 12.4902 11.5429 11.5C11.5429 10.5099 10.7402 9.7072 9.75001 9.7072C8.75986 9.7072 7.95717 10.5099 7.95717 11.5Z" fill="#3590C7" stroke="black" stroke-width="0.3"/>
<path d="M23.4523 2.50096L23.481 2.61396H23.5977H26.1786C26.5494 2.61396 26.85 2.91457 26.85 3.28541C26.85 3.65624 26.5494 3.95685 26.1786 3.95685H23.5977H23.481L23.4523 4.06985C23.1704 5.17733 22.3056 6.0421 21.1982 6.32397C19.5282 6.74899 17.8299 5.73979 17.4048 4.06986L17.3761 3.95685H17.2595H4.82144C4.45061 3.95685 4.15 3.65624 4.15 3.28541C4.15 2.91457 4.45061 2.61396 4.82144 2.61396H17.2595H17.3761L17.4048 2.50096C17.6867 1.39349 18.5515 0.528716 19.659 0.246843C21.329 -0.178174 23.0273 0.831029 23.4523 2.50096ZM18.6358 3.28541C18.6358 4.27556 19.4384 5.07825 20.4286 5.07825C21.4187 5.07825 22.2214 4.27556 22.2214 3.28541C22.2214 2.29526 21.4187 1.49257 20.4286 1.49257C19.4384 1.49257 18.6358 2.29526 18.6358 3.28541Z" fill="#3590C7" stroke="black" stroke-width="0.3"/>
</g>
<defs>
<filter id="filter0_d_3_17" x="0" y="0" width="31" height="31" filterUnits="userSpaceOnUse" color-interpolation-filters="sRGB">
<feFlood flood-opacity="0" result="BackgroundImageFix"/>
<feColorMatrix in="SourceAlpha" type="matrix" values="0 0 0 0 0 0 0 0 0 0 0 0 0 0 0 0 0 0 127 0" result="hardAlpha"/>
<feOffset dy="4"/>
<feGaussianBlur stdDeviation="2"/>
<feColorMatrix type="matrix" values="0 0 0 0 0 0 0 0 0 0 0 0 0 0 0 0 0 0 0.1 0"/>
<feBlend mode="normal" in2="BackgroundImageFix" result="effect1_dropShadow_3_17"/>
<feBlend mode="normal" in="SourceGraphic" in2="effect1_dropShadow_3_17" result="shape"/>
</filter>
<clipPath id="clip0_3_17">
<rect width="23" height="23" fill="white" transform="translate(4)"/>
</clipPath>
</defs>
</svg>
