<svg width="40" height="40" viewBox="0 0 40 40" fill="none" xmlns="http://www.w3.org/2000/svg">
<g clip-path="url(#clip0_3_30)" filter="url(#filter0_d_3_30)">
<path d="M35.176 13.9499L30.375 9.14885V2.81367C30.375 2.29592 29.9553 1.87617 29.4375 1.87617H25.6876C25.1698 1.87617 24.7501 2.29592 24.7501 2.81367V3.52398L22.0512 0.825105C20.9471 -0.278957 19.1678 -0.268519 18.0772 0.82198L4.82433 13.9498C3.72496 15.0491 3.72483 16.8275 4.82433 17.9269C5.62696 18.7295 6.77465 18.935 7.75033 18.5914V31.0631C7.75033 31.5808 8.17008 32.0006 8.68783 32.0006H31.3124C31.8301 32.0006 32.2499 31.5808 32.2499 31.0631V18.5912C33.2269 18.9358 34.3743 18.7285 35.1759 17.9269C35.7072 17.3957 35.9998 16.6894 35.9998 15.9384C35.9998 15.1874 35.7072 14.4811 35.176 13.9499ZM26.625 3.7511H28.4999V7.27385L26.625 5.39892V3.7511ZM22.875 30.1256H17.2501V22.5007H22.875V30.1256ZM30.3749 30.1256H24.75V21.5633C24.75 21.0455 24.3303 20.6258 23.8125 20.6258H16.3126C15.7949 20.6258 15.3751 21.0455 15.3751 21.5633V30.1256H9.62533V17.1117L20.0591 6.78729L30.3749 17.103V30.1256ZM33.8501 16.6012C33.4835 16.9677 32.8913 16.9678 32.5246 16.6012L20.7255 4.8021C20.3609 4.43735 19.7698 4.43579 19.4032 4.7986L7.47565 16.6012C7.11015 16.9666 6.51558 16.9666 6.15008 16.6012C5.78465 16.2357 5.78465 15.641 6.14696 15.2787L19.3999 2.15092C19.7665 1.78436 20.3588 1.78429 20.7255 2.15092L33.8502 15.2757C34.2156 15.6411 34.2156 16.2357 33.8501 16.6012Z" fill="#3590C7"/>
<path d="M35.176 13.9499L30.375 9.14885V2.81367C30.375 2.29592 29.9553 1.87617 29.4375 1.87617H25.6876C25.1698 1.87617 24.7501 2.29592 24.7501 2.81367V3.52398L22.0512 0.825105C20.9471 -0.278957 19.1678 -0.268519 18.0772 0.82198L4.82433 13.9498C3.72496 15.0491 3.72483 16.8275 4.82433 17.9269C5.62696 18.7295 6.77465 18.935 7.75033 18.5914V31.0631C7.75033 31.5808 8.17008 32.0006 8.68783 32.0006H31.3124C31.8301 32.0006 32.2499 31.5808 32.2499 31.0631V18.5912C33.2269 18.9358 34.3743 18.7285 35.1759 17.9269C35.7072 17.3957 35.9998 16.6894 35.9998 15.9384C35.9998 15.1874 35.7072 14.4811 35.176 13.9499ZM26.625 3.7511H28.4999V7.27385L26.625 5.39892V3.7511ZM22.875 30.1256H17.2501V22.5007H22.875V30.1256ZM30.3749 30.1256H24.75V21.5633C24.75 21.0455 24.3303 20.6258 23.8125 20.6258H16.3126C15.7949 20.6258 15.3751 21.0455 15.3751 21.5633V30.1256H9.62533V17.1117L20.0591 6.78729L30.3749 17.103V30.1256ZM33.8501 16.6012C33.4835 16.9677 32.8913 16.9678 32.5246 16.6012L20.7255 4.8021C20.3609 4.43735 19.7698 4.43579 19.4032 4.7986L7.47565 16.6012C7.11015 16.9666 6.51558 16.9666 6.15008 16.6012C5.78465 16.2357 5.78465 15.641 6.14696 15.2787L19.3999 2.15092C19.7665 1.78436 20.3588 1.78429 20.7255 2.15092L33.8502 15.2757C34.2156 15.6411 34.2156 16.2357 33.8501 16.6012Z" stroke="black"/>
<path d="M20.0628 11.2505C17.9951 11.2505 16.3129 12.9326 16.3129 15.0004C16.3129 17.0681 17.9951 18.7503 20.0628 18.7503C22.1305 18.7503 23.8127 17.0681 23.8127 15.0004C23.8127 12.9326 22.1305 11.2505 20.0628 11.2505ZM20.0628 16.8753C19.0289 16.8753 18.1879 16.0342 18.1879 15.0004C18.1879 13.9666 19.029 13.1255 20.0628 13.1255C21.0967 13.1255 21.9377 13.9666 21.9377 15.0004C21.9377 16.0342 21.0967 16.8753 20.0628 16.8753Z" fill="#3590C7"/>
<path d="M20.0628 11.2505C17.9951 11.2505 16.3129 12.9326 16.3129 15.0004C16.3129 17.0681 17.9951 18.7503 20.0628 18.7503C22.1305 18.7503 23.8127 17.0681 23.8127 15.0004C23.8127 12.9326 22.1305 11.2505 20.0628 11.2505ZM20.0628 16.8753C19.0289 16.8753 18.1879 16.0342 18.1879 15.0004C18.1879 13.9666 19.029 13.1255 20.0628 13.1255C21.0967 13.1255 21.9377 13.9666 21.9377 15.0004C21.9377 16.0342 21.0967 16.8753 20.0628 16.8753Z" stroke="black"/>
</g>
<defs>
<filter id="filter0_d_3_30" x="0" y="0" width="40" height="40" filterUnits="userSpaceOnUse" color-interpolation-filters="sRGB">
<feFlood flood-opacity="0" result="BackgroundImageFix"/>
<feColorMatrix in="SourceAlpha" type="matrix" values="0 0 0 0 0 0 0 0 0 0 0 0 0 0 0 0 0 0 127 0" result="hardAlpha"/>
<feOffset dy="4"/>
<feGaussianBlur stdDeviation="2"/>
<feColorMatrix type="matrix" values="0 0 0 0 0 0 0 0 0 0 0 0 0 0 0 0 0 0 0.56 0"/>
<feBlend mode="normal" in2="BackgroundImageFix" result="effect1_dropShadow_3_30"/>
<feBlend mode="normal" in="SourceGraphic" in2="effect1_dropShadow_3_30" result="shape"/>
</filter>
<clipPath id="clip0_3_30">
<rect width="32" height="32" fill="white" transform="translate(4)"/>
</clipPath>
</defs>
</svg>
