<svg width="15" height="19" viewBox="0 0 15 19" fill="none" xmlns="http://www.w3.org/2000/svg">
<g clip-path="url(#clip0_2_55)">
<path d="M0.439453 4.74999V14.25C0.439453 14.5779 0.649338 14.8437 0.908203 14.8437H14.0332C14.2921 14.8437 14.5019 14.5779 14.5019 14.25V4.74999L7.4707 8.90624L0.439453 4.74999Z" fill="#FFC477"/>
<path d="M14.0332 4.15624H0.908203C0.649338 4.15624 0.439453 4.4221 0.439453 4.74999L7.4707 8.90624L14.5019 4.74999C14.5019 4.4221 14.2921 4.15624 14.0332 4.15624Z" fill="#FFA733"/>
<path d="M14.9707 4.73578C14.9707 4.7281 14.9707 4.72143 14.9707 4.71375C14.9552 4.07216 14.5401 3.56219 14.0332 3.56248H0.908203C0.402489 3.56408 -0.0111008 4.07346 -0.0264359 4.71375V4.73578C-0.0264359 4.74346 -0.0292969 4.7452 -0.0292969 4.74998V14.25C-0.0292969 14.9058 0.390472 15.4375 0.908203 15.4375H14.0332C14.5509 15.4375 14.9707 14.9058 14.9707 14.25V4.74998C14.9707 4.7452 14.9707 4.74042 14.9707 4.73578ZM13.3934 4.74998L7.4707 8.25305L1.54804 4.74998H13.3934ZM0.908203 14.25V5.68221L7.27237 9.44418C7.39814 9.51854 7.54326 9.51854 7.66903 9.44418L14.0332 5.68221V14.25H0.908203Z" fill="#3E3D42"/>
</g>
<defs>
<clipPath id="clip0_2_55">
<rect width="15" height="19" fill="white"/>
</clipPath>
</defs>
</svg>
